<?xml version="1.0" encoding="utf-8"?>
<!-- Generator: Adobe Illustrator 16.0.0, SVG Export Plug-In . SVG Version: 6.00 Build 0)  -->
<!DOCTYPE svg PUBLIC "-//W3C//DTD SVG 1.1//EN" "http://www.w3.org/Graphics/SVG/1.1/DTD/svg11.dtd">
<svg version="1.1" id="Layer_1" xmlns="http://www.w3.org/2000/svg" xmlns:xlink="http://www.w3.org/1999/xlink" x="0px" y="0px"
	 viewBox="34.615 124.615 542.77 542.77" enable-background="new 34.615 124.615 542.77 542.77">
<g>
	<g>
		<polygon fill="#F26522" points="247.368,392.615 233.831,392.615 233.831,379.079 233.831,285.957 227.063,292.58
			227.063,497.786 233.831,504.508 233.831,412.921 233.831,399.384 247.368,399.384 364.635,399.384 378.172,399.384
			378.172,412.921 378.172,504.508 384.94,497.786 384.94,292.58 378.172,285.957 378.172,379.079 378.172,392.615 364.635,392.615
					"/>
		<path fill="#FFFFFF" d="M437.812,388.958c3.081,0,5.688,1.942,6.719,4.662h82.399l-17.137-17.136H458.71l-0.744-0.743
			c-5.368-5.37-12.509-8.328-20.102-8.328c-7.595,0-14.731,2.958-20.104,8.328c-0.989,0.992-2.597,0.992-3.589,0
			c-0.99-0.991-0.99-2.598,0-3.589c6.329-6.329,14.742-9.815,23.691-9.815c8.593,0,16.689,3.212,22.925,9.072h43.93l-19.821-19.821
			h-52.146v-25.849l-19.569-21.194v25.659h-5.076v-38.641l29.723,32.189v22.759h41.992L350.31,217.002v59.593l-6.594,15.258
			l8.38,14.406c0.705,1.211,0.295,2.764-0.917,3.47c-0.4,0.233-0.841,0.344-1.272,0.344c-0.875,0-1.728-0.453-2.196-1.263
			l-9.671-16.616l7.195-16.65v-63.619l-14.792-14.794v110.434c12.312,13.115,12.063,33.805-0.744,46.616
			c-0.495,0.496-1.146,0.744-1.795,0.744c-0.651,0-1.3-0.248-1.794-0.744c-0.991-0.99-0.991-2.598,0-3.589
			c11.084-11.086,11.084-29.121,0-40.205l-0.744-0.744V192.056l-17.137-17.137v148.907c2.72,1.028,4.661,3.637,4.661,6.717
			c0,3.978-3.224,7.201-7.2,7.201c-3.979,0-7.202-3.224-7.202-7.201c0-3.08,1.943-5.689,4.663-6.717V175.537l-17.136,17.135v116.972
			l-0.744,0.744c-11.084,11.084-11.084,29.119,0,40.205c0.992,0.991,0.992,2.599,0,3.589c-0.495,0.496-1.145,0.744-1.794,0.744
			s-1.299-0.248-1.795-0.744c-12.811-12.811-13.06-33.501-0.743-46.616V197.749l-14.484,14.485v63.311l7.195,16.65l-9.67,16.616
			c-0.472,0.81-1.322,1.263-2.196,1.263c-0.434,0-0.873-0.111-1.274-0.344c-1.211-0.706-1.623-2.258-0.917-3.47l8.38-14.406
			l-6.594-15.258V217.31l-129.2,129.201h40.665v-22.759l29.721-32.189v38.641h-5.076v-25.659l-19.569,21.194v25.849h-50.817
			L107.44,371.25h42.443c6.233-5.857,14.332-9.071,22.924-9.071h0.001c8.949,0,17.362,3.486,23.691,9.814
			c0.992,0.991,0.992,2.599,0,3.59c-0.991,0.991-2.598,0.991-3.589,0c-5.371-5.371-12.51-8.329-20.103-8.329
			c-7.594,0-14.733,2.958-20.103,8.329l-0.743,0.743h-49.599l-17.135,17.136h80.914c1.028-2.72,3.637-4.663,6.717-4.663
			c3.977,0,7.201,3.224,7.201,7.201c0,3.977-3.224,7.201-7.201,7.201c-3.08,0-5.689-1.943-6.717-4.664H85.229l17.135,17.137h49.599
			l0.743,0.743c5.369,5.371,12.508,8.329,20.103,8.329c7.592,0,14.732-2.958,20.103-8.329c0.991-0.99,2.598-0.99,3.589,0
			c0.992,0.991,0.992,2.599,0,3.589c-6.329,6.329-14.742,9.815-23.691,9.815c-8.593,0-16.692-3.212-22.925-9.071H107.44
			l19.821,19.821h50.659v25.849l19.569,21.193v-25.658h5.076v38.641l-29.721-32.188v-22.761h-40.507L261.38,574.689v-59.283
			l6.594-15.262l-8.38-14.402c-0.705-1.212-0.293-2.766,0.917-3.471c1.212-0.707,2.766-0.294,3.47,0.916l9.67,16.618l-7.195,16.648
			v63.312l14.793,14.793V484.435c-12.313-13.115-12.065-33.805,0.744-46.615c0.991-0.992,2.597-0.992,3.589,0
			c0.991,0.988,0.991,2.598,0,3.589c-11.085,11.085-11.085,29.121,0,40.205l0.743,0.743v117.279l17.139,17.138v-148.6
			c-2.721-1.026-4.664-3.637-4.664-6.717c0-3.979,3.224-7.201,7.202-7.201c3.979,0,7.201,3.225,7.201,7.201
			c0,3.08-1.944,5.689-4.663,6.717V616.77l17.135-17.136V482.355l0.745-0.743c11.084-11.084,11.084-29.12,0-40.205
			c-0.992-0.991-0.992-2.601,0-3.589c0.99-0.992,2.597-0.992,3.589,0c12.812,12.812,13.06,33.5,0.743,46.615v110.122l14.483-14.482
			v-63.618l-7.195-16.648l9.671-16.617c0.703-1.211,2.257-1.624,3.47-0.917c1.212,0.705,1.622,2.259,0.917,3.471l-8.38,14.403
			l6.594,15.261v59.592l129.353-129.351H437.83v22.76l-29.722,32.188v-38.641h5.075v25.658l19.57-21.193v-25.849h51.985
			l19.662-19.663H460.79c-6.234,5.857-14.331,9.07-22.923,9.07c-0.002,0,0,0-0.002,0c-8.949,0-17.362-3.485-23.691-9.814
			c-0.99-0.99-0.99-2.597,0-3.589c0.992-0.991,2.6-0.991,3.589,0c5.371,5.371,12.509,8.329,20.104,8.329
			c7.593,0,14.732-2.958,20.102-8.329l0.744-0.743h50.768l17.137-17.135h-82.083c-1.029,2.72-3.638,4.662-6.718,4.662
			c-3.979,0-7.201-3.225-7.201-7.2C430.612,392.182,433.835,388.958,437.812,388.958z M398.477,503.421l-33.842,33.607V412.921
			H247.368v124.107l-33.842-33.607V286.887l33.842-33.114V379.08h117.267V253.772l33.842,33.114V503.421L398.477,503.421z"/>
		<path fill="#F26522" d="M306,143.758L53.758,396L306,648.241L558.243,396L306,143.758z M315.571,628.882l-9.571,9.57l-9.572-9.57
			L73.119,405.571L63.546,396l9.572-9.57l223.309-223.312l9.572-9.572l9.571,9.572L538.884,386.43l9.571,9.57l-9.571,9.571
			L315.571,628.882z"/>
		<path d="M306,124.615L34.615,396L306,667.385L577.385,396L306,124.615z M53.758,396L306,143.758L558.243,396L306,648.241
			L53.758,396z"/>
		<path d="M538.884,386.43L315.571,163.118L306,153.546l-9.572,9.572L73.119,386.43L63.546,396l9.572,9.571l223.309,223.311
			l9.572,9.57l9.571-9.57l223.312-223.311l9.571-9.571L538.884,386.43z M437.812,403.359c3.081,0,5.688-1.942,6.719-4.662h82.083
			l-17.137,17.135H458.71l-0.744,0.743c-5.368,5.371-12.509,8.329-20.102,8.329c-7.595,0-14.731-2.958-20.104-8.329
			c-0.989-0.991-2.597-0.991-3.589,0c-0.99,0.992-0.99,2.599,0,3.589c6.329,6.329,14.742,9.815,23.691,9.815c0.002,0,0,0,0.002,0
			c8.592,0,16.688-3.214,22.923-9.071H504.4l-19.662,19.663h-51.985v25.849l-19.57,21.193v-25.658h-5.075v38.641l29.722-32.188
			v-22.76h41.833l-129.35,129.35v-59.592l-6.595-15.262l8.38-14.402c0.705-1.212,0.295-2.766-0.917-3.471
			c-1.213-0.707-2.767-0.294-3.47,0.916l-9.671,16.618l7.195,16.648v63.618l-14.483,14.482v-110.12
			c12.315-13.115,12.067-33.805-0.743-46.615c-0.992-0.992-2.599-0.992-3.589,0c-0.992,0.988-0.992,2.598,0,3.589
			c11.084,11.085,11.084,29.121,0,40.205l-0.745,0.743v117.277L308.54,616.77V468.174c2.719-1.026,4.663-3.637,4.663-6.717
			c0-3.979-3.225-7.201-7.201-7.201c-3.979,0-7.202,3.225-7.202,7.201c0,3.08,1.943,5.689,4.664,6.717v148.6l-17.139-17.138V482.356
			l-0.743-0.743c-11.085-11.084-11.085-29.12,0-40.205c0.991-0.991,0.991-2.601,0-3.589c-0.992-0.992-2.598-0.992-3.589,0
			c-12.81,12.812-13.058,33.5-0.744,46.615V594.56l-14.793-14.793v-63.312l7.195-16.648l-9.67-16.618
			c-0.704-1.21-2.258-1.624-3.47-0.917c-1.211,0.706-1.623,2.26-0.917,3.472l8.38,14.402l-6.594,15.262v59.282L132.337,445.647
			h40.507v22.76l29.721,32.188v-38.641h-5.076v25.658L177.92,466.42v-25.849h-50.659L107.44,420.75h42.443
			c6.233,5.859,14.333,9.071,22.925,9.071c8.949,0,17.362-3.486,23.691-9.815c0.992-0.99,0.992-2.598,0-3.589
			c-0.991-0.99-2.598-0.99-3.589,0c-5.371,5.371-12.51,8.329-20.103,8.329c-7.594,0-14.733-2.958-20.103-8.329l-0.743-0.743h-49.599
			l-17.135-17.137h80.914c1.028,2.721,3.637,4.664,6.717,4.664c3.977,0,7.201-3.225,7.201-7.201c0-3.977-3.224-7.201-7.201-7.201
			c-3.08,0-5.689,1.943-6.717,4.663H85.229l17.135-17.136h49.599l0.743-0.743c5.369-5.371,12.508-8.329,20.103-8.329
			c7.592,0,14.732,2.958,20.103,8.329c0.991,0.991,2.598,0.991,3.589,0c0.992-0.991,0.992-2.599,0-3.59
			c-6.329-6.328-14.742-9.814-23.691-9.814h-0.001c-8.592,0-16.691,3.214-22.924,9.071H107.44l19.663-19.662h50.817v-25.849
			l19.569-21.194v25.659h5.076v-38.641l-29.721,32.189v22.759h-40.665L261.38,217.31v59.286l6.594,15.258l-8.38,14.406
			c-0.705,1.211-0.293,2.764,0.917,3.47c0.401,0.233,0.841,0.344,1.274,0.344c0.874,0,1.724-0.453,2.196-1.263l9.67-16.616
			l-7.195-16.65v-63.311l14.484-14.485v109.817c-12.316,13.115-12.067,33.805,0.743,46.616c0.496,0.496,1.146,0.744,1.795,0.744
			s1.299-0.248,1.794-0.744c0.992-0.99,0.992-2.598,0-3.589c-11.084-11.086-11.084-29.121,0-40.205l0.744-0.744V192.672
			l17.136-17.135v148.289c-2.72,1.028-4.663,3.637-4.663,6.717c0,3.978,3.224,7.201,7.202,7.201c3.977,0,7.2-3.224,7.2-7.201
			c0-3.08-1.941-5.689-4.661-6.717V174.918l17.137,17.137v117.588l0.744,0.744c11.084,11.084,11.084,29.119,0,40.205
			c-0.991,0.991-0.991,2.599,0,3.589c0.495,0.496,1.143,0.744,1.794,0.744c0.647,0,1.3-0.248,1.795-0.744
			c12.809-12.811,13.058-33.501,0.744-46.616V197.132l14.792,14.794v63.619l-7.195,16.65l9.671,16.616
			c0.47,0.81,1.321,1.263,2.196,1.263c0.433,0,0.872-0.111,1.272-0.344c1.212-0.706,1.622-2.258,0.917-3.47l-8.38-14.406
			l6.594-15.258v-59.593l129.511,129.509h-41.992v-22.759l-29.723-32.189v38.641h5.076v-25.659l19.569,21.194v25.849h52.146
			l19.82,19.821h-43.93c-6.234-5.86-14.332-9.072-22.925-9.072c-8.949,0-17.362,3.486-23.691,9.815c-0.99,0.991-0.99,2.598,0,3.589
			c0.992,0.992,2.6,0.992,3.589,0c5.371-5.37,12.51-8.328,20.104-8.328c7.593,0,14.732,2.958,20.102,8.328l0.744,0.743h51.084
			l17.137,17.136h-82.399c-1.029-2.72-3.638-4.662-6.718-4.662c-3.979,0-7.201,3.224-7.201,7.201
			C430.612,400.136,433.835,403.359,437.812,403.359z"/>
		<path d="M364.635,379.079H247.368V253.772l-33.842,33.114V503.42l33.842,33.607V412.921h117.267v124.107l33.842-33.607V286.887
			l-33.842-33.114V379.079z M378.172,379.079v-93.123l6.77,6.623v205.207l-6.77,6.722v-91.587v-13.537h-13.537H247.368h-13.537
			v13.537v91.587l-6.769-6.722V292.58l6.769-6.623v93.123v13.536h13.537h117.267h13.537V379.079z"/>
	</g>
	<g>
		<g>
			<g>
				<path d="M412.528,627.71l26.181-45.342c31.149,6.209,61.952,14.594,92.146,25.219l-35.005,13.438l9.855,30.127
					C475.181,640.913,444.02,633.12,412.528,627.71z"/>
			</g>
			<g>
				<path d="M199.473,627.71l-26.181-45.342c-31.15,6.209-61.953,14.594-92.146,25.219l35.004,13.438l-9.856,30.127
					C136.82,640.913,167.98,633.12,199.473,627.71z"/>
			</g>
			<polygon fill="#58595B" points="199.473,627.71 129.609,620.712 173.892,583.405 			"/>
			<polygon fill="#58595B" points="412.528,627.71 482.391,620.712 438.106,583.405 			"/>
			<g>
				<path d="M104.256,576.793l25.353,43.919c114.962-33.619,237.656-33.662,352.637-0.131l25.362-43.928
					C376.47,535.865,235.372,535.912,104.256,576.793z"/>
			</g>
		</g>
		<g>
			<g>
				<path fill="#FFFFFF" d="M155.838,601.385c-0.94-4.068-1.879-8.14-2.819-12.209c-4.112,0.949-8.218,1.938-12.316,2.966
					c1.016,4.053,2.033,8.104,3.049,12.155c-1.172,0.294-2.344,0.591-3.516,0.893c-2.291-8.922-4.581-17.844-6.872-26.766
					c1.221-0.312,2.441-0.623,3.663-0.93c0.966,3.851,1.932,7.7,2.898,11.551c4.118-1.033,8.243-2.026,12.375-2.98
					c-0.893-3.867-1.786-7.735-2.679-11.604c1.226-0.283,2.452-0.562,3.679-0.839c2.023,8.986,4.046,17.972,6.069,26.958
					C158.191,600.846,157.015,601.113,155.838,601.385z"/>
				<path fill="#FFFFFF" d="M192.326,594.04c-1.201,0.206-2.4,0.416-3.6,0.63c-1.146-2.044-2.298-4.086-3.458-6.124
					c-3.939,0.715-7.874,1.465-11.803,2.251c-0.315,2.32-0.624,4.64-0.924,6.96c-1.195,0.243-2.39,0.49-3.584,0.74
					c1.2-9.662,2.533-19.329,3.999-28.998c1.663-0.324,3.326-0.642,4.991-0.952C182.867,576.998,187.66,585.496,192.326,594.04z
					 M175.932,571.545c-0.744,5.338-1.449,10.675-2.115,16.011c3.32-0.659,6.645-1.294,9.972-1.901
					C181.207,580.938,178.588,576.234,175.932,571.545z"/>
				<path fill="#FFFFFF" d="M203.736,584.162c0.583,3.818,2.27,4.807,6.813,4.154c1.668-0.24,4.352-0.82,6.434-1.472
					c0.26,0.998,0.519,1.996,0.777,2.994c-1.937,0.716-4.804,1.4-6.878,1.698c-6.755,0.974-9.9-1.44-10.724-6.61
					c-0.633-4.017-1.267-8.032-1.9-12.049c-0.822-5.157,1.532-8.499,8.598-9.518c2.165-0.312,5.238-0.439,7.375-0.261
					c0.004,1.032,0.009,2.063,0.014,3.097c-2.247-0.08-5.079,0.103-6.802,0.35c-4.7,0.675-6.062,2.155-5.479,5.966
					C202.554,576.396,203.145,580.279,203.736,584.162z"/>
				<path fill="#FFFFFF" d="M232,588.452c-1.194,0.131-2.388,0.266-3.581,0.403c-1.057-9.15-2.113-18.302-3.17-27.45
					c1.243-0.145,2.487-0.284,3.731-0.421C229.986,570.141,230.993,579.296,232,588.452z M235.485,573.938
					c4.224,4.28,8.372,8.603,12.444,12.959c-1.433,0.122-2.866,0.25-4.298,0.382c-4.017-4.339-8.108-8.642-12.273-12.904
					c2.916-4.866,5.903-9.713,8.961-14.54c1.463-0.136,2.927-0.268,4.391-0.395C241.563,564.251,238.487,569.084,235.485,573.938z"
					/>
				<path fill="#FFFFFF" d="M274.586,562.737c0.135,7.47,0.276,14.938,0.424,22.407c-1.158,0.052-2.315,0.105-3.472,0.162
					c-0.133-9.216-0.251-18.432-0.357-27.647c1.583-0.075,3.166-0.146,4.75-0.21c3.08,7.003,6.073,14.024,8.98,21.066
					c2.5-7.195,5.086-14.38,7.76-21.547c1.584-0.024,3.168-0.046,4.752-0.062c0.421,9.208,0.83,18.415,1.224,27.623
					c-1.158,0.01-2.315,0.021-3.473,0.037c-0.28-7.466-0.567-14.932-0.86-22.396c-2.363,6.313-4.659,12.639-6.886,18.975
					c-1.626,0.041-3.253,0.087-4.879,0.141C279.962,575.089,277.308,568.905,274.586,562.737z"/>
				<path fill="#FFFFFF" d="M310.641,556.91c5.698,0.057,11.396,0.183,17.092,0.381c-0.037,1.062-0.074,2.128-0.111,3.191
					c-4.426-0.153-8.853-0.266-13.278-0.332c-0.045,2.891-0.089,5.779-0.133,8.671c4.057,0.062,8.113,0.159,12.169,0.296
					c-0.036,1.063-0.071,2.129-0.105,3.193c-4.037-0.135-8.074-0.231-12.111-0.294c-0.048,3.125-0.096,6.25-0.145,9.375
					c4.305,0.065,8.606,0.173,12.908,0.322c-0.036,1.064-0.072,2.129-0.109,3.193c-5.48-0.19-10.962-0.313-16.444-0.366
					C310.461,575.332,310.551,566.121,310.641,556.91z"/>
				<path fill="#FFFFFF" d="M342.858,563.22c-0.614,7.445-1.224,14.893-1.825,22.338c-1.155-0.064-2.312-0.128-3.468-0.187
					c0.791-9.184,1.596-18.364,2.413-27.545c1.582,0.083,3.164,0.172,4.745,0.267c2.364,7.275,4.642,14.563,6.829,21.861
					c3.209-6.91,6.503-13.798,9.883-20.661c1.58,0.134,3.161,0.271,4.741,0.416c-0.503,9.203-1.021,18.405-1.55,27.606
					c-1.154-0.106-2.308-0.211-3.462-0.312c0.468-7.456,0.93-14.912,1.385-22.369c-2.984,6.045-5.903,12.107-8.756,18.189
					c-1.623-0.123-3.246-0.239-4.87-0.352C346.972,576.047,344.949,569.629,342.858,563.22z"/>
				<path fill="#FFFFFF" d="M379.347,561.037c3.486,0.386,6.971,0.799,10.45,1.238c6.209,0.791,8.016,3.661,7.43,7.848
					c-0.188,1.355-0.377,2.712-0.563,4.068c-0.593,4.235-3.055,6.471-9.088,5.7c-2.183-0.274-4.364-0.539-6.548-0.793
					c-0.381,3.271-0.761,6.539-1.141,9.81c-1.191-0.14-2.386-0.273-3.578-0.405C377.321,579.348,378.334,570.192,379.347,561.037z
					 M389.272,565.428c-2.188-0.275-4.376-0.541-6.564-0.795c-0.438,3.764-0.875,7.528-1.313,11.293
					c2.152,0.25,4.306,0.512,6.456,0.781c3.476,0.44,4.789-0.34,5.146-3.014c0.179-1.345,0.356-2.688,0.536-4.032
					C393.897,566.95,392.81,565.876,389.272,565.428z"/>
				<path fill="#FFFFFF" d="M420.236,594.869c0.737-4.111,1.477-8.223,2.215-12.334c-4.146-0.744-8.294-1.449-12.448-2.114
					c-0.661,4.124-1.321,8.249-1.981,12.373c-1.188-0.19-2.375-0.377-3.563-0.561c1.406-9.104,2.813-18.206,4.221-27.31
					c1.237,0.191,2.476,0.386,3.712,0.584c-0.628,3.92-1.255,7.839-1.883,11.759c4.174,0.669,8.343,1.377,12.508,2.124
					c0.701-3.906,1.402-7.812,2.104-11.721c1.235,0.222,2.47,0.447,3.703,0.676c-1.677,9.058-3.354,18.113-5.032,27.17
					C422.606,595.298,421.422,595.082,420.236,594.869z"/>
				<path fill="#FFFFFF" d="M439.509,598.627c-1.18-0.248-2.358-0.493-3.54-0.735c1.85-9.022,3.696-18.047,5.544-27.07
					c1.23,0.252,2.459,0.508,3.688,0.767C443.304,580.6,441.406,589.613,439.509,598.627z"/>
				<path fill="#FFFFFF" d="M458.633,603.377c-2.618-0.635-5.656-1.857-7.788-3.323c0.407-0.899,0.814-1.8,1.225-2.7
					c2.345,1.35,4.88,2.372,7.392,2.98c4.396,1.069,5.579,0.184,6.349-2.878c0.905-3.617,0.962-3.97-4.449-6.609
					c-6.374-3.062-6.901-4.472-5.619-10.061c1.068-4.686,3.646-6.512,10.699-4.804c2.477,0.603,5.341,1.662,7.451,2.803
					c-0.351,0.953-0.7,1.906-1.051,2.858c-2.12-1.057-4.723-2.008-7.062-2.576c-4.635-1.124-5.697-0.422-6.428,2.684
					c-0.877,3.723-0.9,3.866,4.312,6.539c6.977,3.6,7.061,4.771,5.724,9.986C468.182,602.947,466.114,605.203,458.633,603.377z"/>
			</g>
		</g>
	</g>
</g>
</svg>
