<?xml version="1.0" encoding="iso-8859-1"?>
<!-- Generator: Adobe Illustrator 16.0.0, SVG Export Plug-In . SVG Version: 6.00 Build 0)  -->
<!DOCTYPE svg PUBLIC "-//W3C//DTD SVG 1.1//EN" "http://www.w3.org/Graphics/SVG/1.1/DTD/svg11.dtd">
<svg version="1.1" id="Layer_1" xmlns="http://www.w3.org/2000/svg" xmlns:xlink="http://www.w3.org/1999/xlink" x="0px" y="0px"
	 width="263.729px" height="81.697px" viewBox="0 0 263.729 81.697" style="enable-background:new 0 0 263.729 81.697;"
	 xml:space="preserve">
<g>
	<polygon style="fill:#116C9A;" points="100.958,43.821 79.728,0.277 62.14,0.277 40.755,43.977 17.82,0.277 0,0.277 29.598,54.823 
		50.439,54.823 70.507,13.682 90.651,54.823 111.417,54.823 126.82,26.437 118.342,10.813 	"/>
	<polygon style="fill:#116C9A;" points="246.605,0 223.672,43.544 202.441,0 184.854,0 163.469,43.699 140.535,0 122.715,0 
		152.312,54.546 173.153,54.546 193.222,13.405 213.366,54.546 234.132,54.546 263.729,0 	"/>
</g>
<g>
	<path style="fill:#D57528;" d="M111.085,81.697v-9.519l-4.103,6.228h-0.083l-4.062-6.165v9.456h-3.146V67.118h3.458l3.832,6.164
		l3.832-6.164h3.458v14.579H111.085z"/>
	<path style="fill:#D57528;" d="M121.939,81.697V67.118h10.997v2.853h-7.811v2.958h6.873v2.854h-6.873v3.061h7.915v2.854H121.939z"
		/>
	<path style="fill:#D57528;" d="M151.455,81.697v-9.519l-4.103,6.228h-0.084l-4.062-6.165v9.456h-3.145V67.118h3.458l3.832,6.164
		l3.832-6.164h3.457v14.579H151.455z"/>
</g>
<g>
	<rect x="29.028" y="72.407" style="fill:#D57528;" width="63.905" height="4"/>
</g>
<g>
	<rect x="161.271" y="72.407" style="fill:#D57528;" width="72.423" height="4"/>
</g>
</svg>
